<svg xmlns="http://www.w3.org/2000/svg" version="1.1" xmlns:xlink="http://www.w3.org/1999/xlink" xmlns:svgjs="http://svgjs.dev/svgjs" width="1500" height="464" viewBox="0 0 1500 464"><g transform="matrix(1,0,0,1,1.5095589512779952,1.793160430239027)"><svg viewBox="0 0 181 56" data-background-color="#ffffff" preserveAspectRatio="xMidYMid meet" height="464" width="1500" xmlns="http://www.w3.org/2000/svg" xmlns:xlink="http://www.w3.org/1999/xlink"><g id="tight-bounds" transform="matrix(1,0,0,1,-0.1821534467875381,0.31428319441411645)"><svg viewBox="0 0 181.36430689357508 55.901900000000005" height="55.901900000000005" width="181.36430689357508"><g><svg viewBox="0 0 181.36430689357508 55.901900000000005" height="55.901900000000005" width="181.36430689357508"><g><svg viewBox="0 0 181.36430689357508 55.901900000000005" height="55.901900000000005" width="181.36430689357508"><g id="textblocktransform"><svg viewBox="0 0 181.36430689357508 55.901900000000005" height="55.901900000000005" width="181.36430689357508" id="textblock"><g><svg viewBox="0 0 181.36430689357508 55.901900000000005" height="55.901900000000005" width="181.36430689357508"><g><svg><g></g><g></g></svg></g><g><svg><g><svg></svg></g><g></g></svg></g><g id="text-0"><svg viewBox="0 0 181.36430689357508 55.901900000000005" height="55.901900000000005" width="181.36430689357508"><g transform="matrix(1,0,0,1,0,0)"><svg width="110.91390000000001" viewBox="4.25 -34.55 68.55 34.55" height="55.901900000000005" data-palette-color="#222222"><g class="wordmark-text-0" data-fill-palette-color="primary"><path d="M10.9-34.55L10.9-34.55Q13.3-34.55 15.75-34.52 18.2-34.5 20.6-34.45 23-34.4 25.2-34.2L25.2-34.2 24.95-30.8 12-30.8Q10.25-30.8 9.45-30.03 8.65-29.25 8.65-27.5L8.65-27.5 8.65 0 4.25 0 4.25-28.35Q4.25-31.3 6.05-32.93 7.85-34.55 10.9-34.55ZM5.1-15.95L5.1-19.5 23.05-19.5 23.05-15.95 5.1-15.95ZM68.15-34.5L72.8-34.5 65.8-1.3Q65.65-0.75 65.2-0.38 64.75 0 64.05 0L64.05 0 59.05 0Q58.4 0 57.92-0.38 57.45-0.75 57.35-1.35L57.35-1.35 51.95-27.3Q51.75-28.3 51.55-29.28 51.35-30.25 51.15-31.2L51.15-31.2 50.1-31.2Q49.9-30.25 49.72-29.25 49.55-28.25 49.35-27.3L49.35-27.3 44-1.35Q43.85-0.75 43.37-0.38 42.9 0 42.25 0L42.25 0 37.2 0Q36.55 0 36.07-0.38 35.6-0.75 35.5-1.3L35.5-1.3 28.5-34.5 33.15-34.5 38.55-7.6Q38.75-6.65 38.9-5.58 39.05-4.5 39.25-3.35L39.25-3.35 40.4-3.35Q40.6-4.5 40.8-5.55 41-6.6 41.2-7.6L41.2-7.6 46.55-33.05Q46.65-33.7 47.12-34.1 47.6-34.5 48.25-34.5L48.25-34.5 53.05-34.5Q53.7-34.5 54.15-34.1 54.6-33.7 54.75-33.05L54.75-33.05 60.1-7.6Q60.35-6.5 60.52-5.45 60.7-4.4 60.8-3.35L60.8-3.35 62.05-3.35Q62.2-4.4 62.35-5.48 62.5-6.55 62.7-7.55L62.7-7.55 68.15-34.5Z" fill="#222222" data-fill-palette-color="primary"></path></g></svg></g><g><svg xmlns="http://www.w3.org/2000/svg" xmlns:xlink="http://www.w3.org/1999/xlink" version="1.1" x="124.11200000000001" y="0" viewBox="11.017823632605122 11.461749422187646 37.96369815853941 37.06825057781236" style="enable-background:new 0 0 60 60;" xml:space="preserve" height="55.901900000000005" width="57.25230689357507" class="icon-dxe-0" data-fill-palette-color="accent" id="dxe-0"><path d="M48.85 34.1L35.82 11.92A0.945 0.945 0 0 0 34.2 11.92L30 19.08 25.79 11.93A0.945 0.945 0 0 0 24.17 11.93L11.15 34.1C10.93 34.47 10.99 34.93 11.29 35.23L24.32 48.26C24.5 48.44 24.74 48.53 24.98 48.53S25.46 48.44 25.64 48.26L30 43.91 34.35 48.26C34.53 48.44 34.77 48.53 35.01 48.53S35.49 48.44 35.67 48.26L48.7 35.23C49.01 34.93 49.07 34.46 48.85 34.1M24.99 46.28L13.13 34.42 24.99 14.24 28.92 20.92 21.17 34.1C20.95 34.47 21.01 34.93 21.31 35.23L28.67 42.59zM30 22.77L36.85 34.42 30 41.27 23.15 34.42zM35.01 46.28L31.32 42.59 38.68 35.23C38.98 34.93 39.04 34.46 38.82 34.1L31.08 20.93 35.01 14.25 46.87 34.43z" fill="#222222" data-fill-palette-color="accent"></path></svg></g></svg></g></svg></g></svg></g></svg></g><g></g></svg></g><defs></defs></svg><rect width="181.36430689357508" height="55.901900000000005" fill="none" stroke="none" visibility="hidden"></rect></g></svg></g></svg>